<svg width="38" height="30" viewBox="0 0 38 30" fill="none" xmlns="http://www.w3.org/2000/svg">
<g clip-path="url(#clip0_2016_652)">
<path d="M15.011 4.24183L6.31228 6.55085C5.79961 6.68694 5.36198 7.02111 5.09569 7.47986C4.8294 7.9386 4.75626 8.48434 4.89234 8.99702L8.99727 24.4615C9.13336 24.9742 9.46753 25.4118 9.92628 25.6781C10.385 25.9444 10.9308 26.0175 11.4434 25.8814L23.0418 22.8027C23.5545 22.6666 23.9921 22.3325 24.2584 21.8737C24.5247 21.415 24.5978 20.8692 24.4617 20.3566L21.1265 7.79168L15.011 4.24183Z" fill="white"/>
<path d="M14.0445 4.49839L15.0707 8.3645C15.2068 8.87718 15.541 9.3148 15.9998 9.58109C16.4585 9.84738 17.0042 9.92053 17.5169 9.78444L21.383 8.75821" fill="white"/>
<path d="M11.0675 16.6696L13.0005 16.1564L11.0675 16.6696Z" fill="white"/>
<path d="M16.8667 15.1302L18.7997 14.6171L16.8667 15.1302Z" fill="white"/>
<path d="M12.0937 20.5357L14.0268 20.0225L12.0937 20.5357Z" fill="white"/>
<path d="M17.8929 18.9963L19.8259 18.4832L17.8929 18.9963Z" fill="white"/>
<path d="M14.0445 4.49839L15.0707 8.3645C15.2068 8.87718 15.541 9.3148 15.9998 9.58109C16.4585 9.84738 17.0042 9.92053 17.5169 9.78444L21.383 8.75821M11.0675 16.6696L13.0005 16.1564M16.8667 15.1302L18.7997 14.6171M12.0937 20.5357L14.0268 20.0225M17.8929 18.9963L19.8259 18.4832M15.011 4.24183L6.31228 6.55085C5.79961 6.68694 5.36198 7.02111 5.09569 7.47986C4.8294 7.9386 4.75626 8.48434 4.89234 8.99702L8.99727 24.4615C9.13336 24.9742 9.46753 25.4118 9.92628 25.6781C10.385 25.9444 10.9308 26.0175 11.4434 25.8814L23.0418 22.8027C23.5545 22.6666 23.9921 22.3325 24.2584 21.8737C24.5247 21.415 24.5978 20.8692 24.4617 20.3566L21.1265 7.79168L15.011 4.24183Z" stroke="#A1A1AA" stroke-width="2" stroke-linecap="round" stroke-linejoin="round"/>
</g>
<g clip-path="url(#clip1_2016_652)">
<path d="M28.0011 5.81257L19.2058 3.90409C18.6874 3.79161 18.1456 3.88966 17.6995 4.17666C17.2534 4.46367 16.9397 4.91613 16.8272 5.4345L13.4343 21.0706C13.3218 21.589 13.4199 22.1308 13.7069 22.5769C13.9939 23.023 14.4464 23.3368 14.9647 23.4492L26.6918 25.9939C27.2102 26.1064 27.752 26.0083 28.1981 25.7213C28.6442 25.4343 28.958 24.9819 29.0704 24.4635L31.8271 11.7591L28.0011 5.81257Z" fill="#E4E4E7"/>
<path d="M27.0239 5.60051L26.1756 9.50955C26.0632 10.0279 26.1612 10.5697 26.4482 11.0158C26.7352 11.4619 27.1877 11.7757 27.7061 11.8882L31.6151 12.7364" fill="#E4E4E7"/>
<path d="M18.8277 15.078L20.7822 15.5021L18.8277 15.078Z" fill="#E4E4E7"/>
<path d="M24.6913 16.3504L26.6458 16.7745L24.6913 16.3504Z" fill="#E4E4E7"/>
<path d="M17.9795 18.9871L19.934 19.4112L17.9795 18.9871Z" fill="#E4E4E7"/>
<path d="M23.8431 20.2594L25.7976 20.6835L23.8431 20.2594Z" fill="#E4E4E7"/>
<path d="M27.0239 5.60051L26.1756 9.50955C26.0632 10.0279 26.1612 10.5697 26.4482 11.0158C26.7352 11.4619 27.1877 11.7757 27.7061 11.8882L31.6151 12.7364M18.8277 15.078L20.7822 15.5021M24.6913 16.3504L26.6458 16.7745M17.9795 18.9871L19.934 19.4112M23.8431 20.2594L25.7976 20.6835M28.0011 5.81257L19.2058 3.90409C18.6874 3.79161 18.1456 3.88966 17.6995 4.17666C17.2534 4.46367 16.9397 4.91613 16.8272 5.4345L13.4343 21.0706C13.3218 21.589 13.4199 22.1308 13.7069 22.5769C13.9939 23.023 14.4464 23.3368 14.9647 23.4492L26.6918 25.9939C27.2102 26.1064 27.752 26.0083 28.1981 25.7213C28.6442 25.4343 28.958 24.9819 29.0704 24.4635L31.8271 11.7591L28.0011 5.81257Z" stroke="#71717A" stroke-width="2" stroke-linecap="round" stroke-linejoin="round"/>
</g>
<defs>
<clipPath id="clip0_2016_652">
<rect width="24" height="24" fill="white" transform="translate(0 6.15723) rotate(-14.8659)"/>
</clipPath>
<clipPath id="clip1_2016_652">
<rect width="24" height="24" fill="white" transform="translate(13.7664 0.677246) rotate(12.2427)"/>
</clipPath>
</defs>
</svg>
